<?xml version="1.0" encoding="utf-8"?>
<!-- Generator: Adobe Illustrator 16.0.0, SVG Export Plug-In . SVG Version: 6.00 Build 0)  -->
<!DOCTYPE svg PUBLIC "-//W3C//DTD SVG 1.1//EN" "http://www.w3.org/Graphics/SVG/1.1/DTD/svg11.dtd">
<svg version="1.1" id="Layer_1" xmlns="http://www.w3.org/2000/svg" xmlns:xlink="http://www.w3.org/1999/xlink" x="0px" y="0px"
	 width="500px" height="350px" viewBox="0 0 500 350" enable-background="new 0 0 500 350" xml:space="preserve">
<rect fill="#FFF200" width="500" height="350"/>
<g>
	<g>
		<path fill="#58595B" d="M234.393,252.858H218.79c8.254,0.391,14.906,7.876,15.603,15.628V252.858z"/>
	</g>
	<g>
		<path fill="#231F20" d="M234.393,252.858h15.605c-8.261,0.391-14.915,7.876-15.605,15.628V252.858z"/>
	</g>
	<g>
		<path fill="#231F20" d="M234.393,252.858H218.79c8.254-0.392,14.906-7.872,15.603-15.623V252.858z"/>
	</g>
	<g>
		<path fill="#BCBEC0" d="M234.393,252.858h15.605c-8.261-0.392-14.915-7.872-15.605-15.623V252.858z"/>
	</g>
	<g>
		<path fill="#58595B" d="M234.393,221.606H218.79c8.254,0.393,14.906,7.877,15.603,15.629V221.606z"/>
	</g>
	<g>
		<path fill="#231F20" d="M234.393,221.606h15.605c-8.261,0.393-14.915,7.877-15.605,15.629V221.606z"/>
	</g>
	<g>
		<path fill="#231F20" d="M234.393,221.606H218.79c8.254-0.392,14.906-7.871,15.603-15.622V221.606z"/>
	</g>
	<g>
		<path fill="#BCBEC0" d="M234.393,221.606h15.605c-8.261-0.392-14.915-7.871-15.605-15.622V221.606z"/>
	</g>
	<g>
		<path fill="#58595B" d="M265.65,221.606h-15.562c8.229,0.393,14.863,7.877,15.562,15.629V221.606z"/>
	</g>
	<g>
		<path fill="#231F20" d="M265.65,221.606h15.554c-8.235,0.393-14.867,7.877-15.554,15.629V221.606z"/>
	</g>
	<g>
		<path fill="#231F20" d="M265.65,221.606h-15.562c8.229-0.392,14.863-7.871,15.562-15.622V221.606z"/>
	</g>
	<g>
		<path fill="#BCBEC0" d="M265.65,221.606h15.554c-8.235-0.392-14.867-7.871-15.554-15.622V221.606z"/>
	</g>
	<g>
		<path fill="#58595B" d="M265.604,252.862h-15.606c8.253,0.391,14.908,7.87,15.606,15.622V252.862z"/>
	</g>
	<g>
		<path fill="#231F20" d="M265.604,252.862h15.6c-8.258,0.391-14.91,7.87-15.6,15.622V252.862z"/>
	</g>
	<g>
		<path fill="#231F20" d="M265.604,252.862h-15.606c8.253-0.4,14.908-7.878,15.606-15.63V252.862z"/>
	</g>
	<g>
		<path fill="#BCBEC0" d="M265.604,252.862h15.6c-8.258-0.4-14.91-7.878-15.6-15.63V252.862z"/>
	</g>
	<g>
		<path fill="#58595B" d="M234.393,315.358H218.79c8.254,0.392,14.906,7.879,15.603,15.632V315.358z"/>
	</g>
	<g>
		<path fill="#231F20" d="M234.393,315.358h15.605c-8.261,0.392-14.915,7.879-15.605,15.632V315.358z"/>
	</g>
	<g>
		<path fill="#231F20" d="M234.393,315.358H218.79c8.254-0.39,14.906-7.871,15.603-15.621V315.358z"/>
	</g>
	<g>
		<path fill="#BCBEC0" d="M234.393,315.358h15.605c-8.261-0.39-14.915-7.871-15.605-15.621V315.358z"/>
	</g>
	<g>
		<path fill="#58595B" d="M234.393,284.108H218.79c8.254,0.392,14.906,7.878,15.603,15.629V284.108z"/>
	</g>
	<g>
		<path fill="#231F20" d="M234.393,284.108h15.605c-8.261,0.392-14.915,7.878-15.605,15.629V284.108z"/>
	</g>
	<g>
		<path fill="#231F20" d="M234.393,284.108H218.79c8.254-0.391,14.906-7.871,15.603-15.622V284.108z"/>
	</g>
	<g>
		<path fill="#BCBEC0" d="M234.393,284.108h15.605c-8.261-0.391-14.915-7.871-15.605-15.622V284.108z"/>
	</g>
	<g>
		<path fill="#58595B" d="M265.65,284.108h-15.562c8.229,0.392,14.863,7.878,15.562,15.629V284.108z"/>
	</g>
	<g>
		<path fill="#231F20" d="M265.65,284.108h15.554c-8.235,0.392-14.867,7.878-15.554,15.629V284.108z"/>
	</g>
	<g>
		<path fill="#231F20" d="M265.65,284.108h-15.562c8.229-0.391,14.863-7.871,15.562-15.622V284.108z"/>
	</g>
	<g>
		<path fill="#BCBEC0" d="M265.65,284.108h15.554c-8.235-0.391-14.867-7.871-15.554-15.622V284.108z"/>
	</g>
	<g>
		<path fill="#58595B" d="M265.604,315.364h-15.606c8.253,0.392,14.908,7.869,15.606,15.62V315.364z"/>
	</g>
	<g>
		<path fill="#231F20" d="M265.604,315.364h15.6c-8.258,0.392-14.91,7.869-15.6,15.62V315.364z"/>
	</g>
	<g>
		<path fill="#231F20" d="M265.604,315.364h-15.606c8.253-0.4,14.908-7.879,15.606-15.63V315.364z"/>
	</g>
	<g>
		<path fill="#BCBEC0" d="M265.604,315.364h15.6c-8.258-0.4-14.91-7.879-15.6-15.63V315.364z"/>
	</g>
	<g>
		<path fill="#58595B" d="M234.393,128.299H218.79c8.254,0.392,14.906,7.878,15.603,15.629V128.299z"/>
	</g>
	<g>
		<path fill="#231F20" d="M234.393,128.299h15.605c-8.261,0.392-14.915,7.878-15.605,15.629V128.299z"/>
	</g>
	<g>
		<path fill="#231F20" d="M234.393,128.299H218.79c8.254-0.392,14.906-7.871,15.603-15.622V128.299z"/>
	</g>
	<g>
		<path fill="#BCBEC0" d="M234.393,128.299h15.605c-8.261-0.392-14.915-7.871-15.605-15.622V128.299z"/>
	</g>
	<g>
		<path fill="#58595B" d="M234.393,97.048H218.79c8.254,0.392,14.906,7.877,15.603,15.629V97.048z"/>
	</g>
	<g>
		<path fill="#231F20" d="M234.393,97.048h15.605c-8.261,0.392-14.915,7.877-15.605,15.629V97.048z"/>
	</g>
	<g>
		<path fill="#231F20" d="M234.393,97.048H218.79c8.254-0.392,14.906-7.871,15.603-15.622V97.048z"/>
	</g>
	<g>
		<path fill="#BCBEC0" d="M234.393,97.048h15.605c-8.261-0.392-14.915-7.871-15.605-15.622V97.048z"/>
	</g>
	<g>
		<path fill="#58595B" d="M265.65,97.048h-15.562c8.229,0.392,14.863,7.877,15.562,15.629V97.048z"/>
	</g>
	<g>
		<path fill="#231F20" d="M265.65,97.048h15.554c-8.235,0.392-14.867,7.877-15.554,15.629V97.048z"/>
	</g>
	<g>
		<path fill="#231F20" d="M265.65,97.048h-15.562c8.229-0.392,14.863-7.871,15.562-15.622V97.048z"/>
	</g>
	<g>
		<path fill="#BCBEC0" d="M265.65,97.048h15.554c-8.235-0.392-14.867-7.871-15.554-15.622V97.048z"/>
	</g>
	<g>
		<path fill="#58595B" d="M265.604,128.302h-15.606c8.253,0.392,14.908,7.872,15.606,15.623V128.302z"/>
	</g>
	<g>
		<path fill="#231F20" d="M265.604,128.302h15.6c-8.258,0.392-14.91,7.872-15.6,15.623V128.302z"/>
	</g>
	<g>
		<path fill="#231F20" d="M265.604,128.302h-15.606c8.253-0.398,14.908-7.877,15.606-15.628V128.302z"/>
	</g>
	<g>
		<path fill="#BCBEC0" d="M265.604,128.302h15.6c-8.258-0.398-14.91-7.877-15.6-15.628V128.302z"/>
	</g>
	<g>
		<path fill="#58595B" d="M234.393,190.8H218.79c8.254,0.392,14.906,7.878,15.603,15.63V190.8z"/>
	</g>
	<g>
		<path fill="#231F20" d="M234.393,190.8h15.605c-8.261,0.392-14.915,7.878-15.605,15.63V190.8z"/>
	</g>
	<g>
		<path fill="#231F20" d="M234.393,190.8H218.79c8.254-0.392,14.906-7.87,15.603-15.621V190.8z"/>
	</g>
	<g>
		<path fill="#BCBEC0" d="M234.393,190.8h15.605c-8.261-0.392-14.915-7.87-15.605-15.621V190.8z"/>
	</g>
	<g>
		<path fill="#58595B" d="M234.393,159.549H218.79c8.254,0.393,14.906,7.878,15.603,15.63V159.549z"/>
	</g>
	<g>
		<path fill="#231F20" d="M234.393,159.549h15.605c-8.261,0.393-14.915,7.878-15.605,15.63V159.549z"/>
	</g>
	<g>
		<path fill="#231F20" d="M234.393,159.549H218.79c8.254-0.391,14.906-7.871,15.603-15.622V159.549z"/>
	</g>
	<g>
		<path fill="#BCBEC0" d="M234.393,159.549h15.605c-8.261-0.391-14.915-7.871-15.605-15.622V159.549z"/>
	</g>
	<g>
		<path fill="#58595B" d="M265.65,159.549h-15.562c8.229,0.393,14.863,7.878,15.562,15.63V159.549z"/>
	</g>
	<g>
		<path fill="#231F20" d="M265.65,159.549h15.554c-8.235,0.393-14.867,7.878-15.554,15.63V159.549z"/>
	</g>
	<g>
		<path fill="#231F20" d="M265.65,159.549h-15.562c8.229-0.391,14.863-7.871,15.562-15.622V159.549z"/>
	</g>
	<g>
		<path fill="#BCBEC0" d="M265.65,159.549h15.554c-8.235-0.391-14.867-7.871-15.554-15.622V159.549z"/>
	</g>
	<g>
		<path fill="#58595B" d="M265.604,190.804h-15.606c8.253,0.392,14.908,7.871,15.606,15.623V190.804z"/>
	</g>
	<g>
		<path fill="#231F20" d="M265.604,190.804h15.6c-8.258,0.392-14.91,7.871-15.6,15.623V190.804z"/>
	</g>
	<g>
		<path fill="#231F20" d="M265.604,190.804h-15.606c8.253-0.399,14.908-7.877,15.606-15.628V190.804z"/>
	</g>
	<g>
		<path fill="#BCBEC0" d="M265.604,190.804h15.6c-8.258-0.399-14.91-7.877-15.6-15.628V190.804z"/>
	</g>
	<g>
		<path fill="#58595B" d="M203.128,34.612V19.01c-0.392,8.253-7.877,14.905-15.629,15.602H203.128z"/>
	</g>
	<g>
		<path fill="#231F20" d="M203.128,34.612v15.606c-0.392-8.259-7.877-14.915-15.629-15.606H203.128z"/>
	</g>
	<g>
		<path fill="#231F20" d="M203.128,34.612V19.01c0.392,8.253,7.871,14.905,15.623,15.602H203.128z"/>
	</g>
	<g>
		<path fill="#BCBEC0" d="M203.128,34.612v15.606c0.392-8.259,7.871-14.915,15.623-15.606H203.128z"/>
	</g>
	<g>
		<path fill="#58595B" d="M234.379,34.612V19.01c-0.392,8.253-7.877,14.905-15.628,15.602H234.379z"/>
	</g>
	<g>
		<path fill="#231F20" d="M234.379,34.612v15.606c-0.392-8.259-7.877-14.915-15.628-15.606H234.379z"/>
	</g>
	<g>
		<path fill="#231F20" d="M234.379,34.612V19.01c0.392,8.253,7.871,14.905,15.623,15.602H234.379z"/>
	</g>
	<g>
		<path fill="#BCBEC0" d="M234.379,34.612v15.606c0.392-8.259,7.871-14.915,15.623-15.606H234.379z"/>
	</g>
	<g>
		<path fill="#58595B" d="M234.379,65.87V50.308c-0.392,8.229-7.877,14.864-15.628,15.562H234.379z"/>
	</g>
	<g>
		<path fill="#231F20" d="M234.379,65.87v15.556c-0.392-8.236-7.877-14.869-15.628-15.556H234.379z"/>
	</g>
	<g>
		<path fill="#231F20" d="M234.379,65.87V50.308c0.392,8.229,7.871,14.864,15.623,15.562H234.379z"/>
	</g>
	<g>
		<path fill="#BCBEC0" d="M234.379,65.87v15.556c0.392-8.236,7.871-14.869,15.623-15.556H234.379z"/>
	</g>
	<g>
		<path fill="#58595B" d="M203.123,65.824V50.218c-0.389,8.252-7.869,14.908-15.62,15.606H203.123z"/>
	</g>
	<g>
		<path fill="#231F20" d="M203.123,65.824v15.602c-0.389-8.26-7.869-14.912-15.62-15.602H203.123z"/>
	</g>
	<g>
		<path fill="#231F20" d="M203.123,65.824V50.218c0.4,8.252,7.88,14.908,15.63,15.606H203.123z"/>
	</g>
	<g>
		<path fill="#BCBEC0" d="M203.123,65.824v15.602c0.4-8.26,7.88-14.912,15.63-15.602H203.123z"/>
	</g>
	<g>
		<path fill="#58595B" d="M171.876,34.612V19.01c-0.392,8.253-7.877,14.905-15.628,15.602H171.876z"/>
	</g>
	<g>
		<path fill="#231F20" d="M171.876,34.612v15.606c-0.392-8.259-7.877-14.915-15.628-15.606H171.876z"/>
	</g>
	<g>
		<path fill="#231F20" d="M171.876,34.612V19.01c0.392,8.253,7.872,14.905,15.623,15.602H171.876z"/>
	</g>
	<g>
		<path fill="#BCBEC0" d="M171.876,34.612v15.606c0.392-8.259,7.872-14.915,15.623-15.606H171.876z"/>
	</g>
	<g>
		<path fill="#58595B" d="M171.876,65.87V50.308c-0.392,8.229-7.877,14.864-15.628,15.562H171.876z"/>
	</g>
	<g>
		<path fill="#231F20" d="M171.876,65.87v15.556c-0.392-8.236-7.877-14.869-15.628-15.556H171.876z"/>
	</g>
	<g>
		<path fill="#231F20" d="M171.876,65.87V50.308c0.392,8.229,7.872,14.864,15.623,15.562H171.876z"/>
	</g>
	<g>
		<path fill="#BCBEC0" d="M171.876,65.87v15.556c0.392-8.236,7.872-14.869,15.623-15.556H171.876z"/>
	</g>
	<g>
		<path fill="#58595B" d="M296.871,34.612V19.01c0.392,8.253,7.877,14.905,15.63,15.602H296.871z"/>
	</g>
	<g>
		<path fill="#231F20" d="M296.871,34.612v15.606c0.392-8.259,7.877-14.915,15.63-15.606H296.871z"/>
	</g>
	<g>
		<path fill="#231F20" d="M296.871,34.612V19.01c-0.392,8.253-7.871,14.905-15.622,15.602H296.871z"/>
	</g>
	<g>
		<path fill="#BCBEC0" d="M296.871,34.612v15.606c-0.392-8.259-7.871-14.915-15.622-15.606H296.871z"/>
	</g>
	<g>
		<path fill="#58595B" d="M265.62,34.612V19.01c0.392,8.253,7.878,14.905,15.629,15.602H265.62z"/>
	</g>
	<g>
		<path fill="#231F20" d="M265.62,34.612v15.606c0.392-8.259,7.878-14.915,15.629-15.606H265.62z"/>
	</g>
	<g>
		<path fill="#231F20" d="M265.62,34.612V19.01c-0.393,8.253-7.87,14.905-15.622,15.602H265.62z"/>
	</g>
	<g>
		<path fill="#BCBEC0" d="M265.62,34.612v15.606c-0.393-8.259-7.87-14.915-15.622-15.606H265.62z"/>
	</g>
	<g>
		<path fill="#58595B" d="M265.62,65.87V50.308c0.392,8.229,7.878,14.864,15.629,15.562H265.62z"/>
	</g>
	<g>
		<path fill="#231F20" d="M265.62,65.87v15.556c0.392-8.236,7.878-14.869,15.629-15.556H265.62z"/>
	</g>
	<g>
		<path fill="#231F20" d="M265.62,65.87V50.308c-0.393,8.229-7.87,14.864-15.622,15.562H265.62z"/>
	</g>
	<g>
		<path fill="#BCBEC0" d="M265.62,65.87v15.556c-0.393-8.236-7.87-14.869-15.622-15.556H265.62z"/>
	</g>
	<g>
		<path fill="#58595B" d="M296.874,65.824V50.218c0.394,8.252,7.872,14.908,15.622,15.606H296.874z"/>
	</g>
	<g>
		<path fill="#231F20" d="M296.874,65.824v15.602c0.394-8.26,7.872-14.912,15.622-15.602H296.874z"/>
	</g>
	<g>
		<path fill="#231F20" d="M296.874,65.824V50.218c-0.399,8.252-7.877,14.908-15.628,15.606H296.874z"/>
	</g>
	<g>
		<path fill="#BCBEC0" d="M296.874,65.824v15.602c-0.399-8.26-7.877-14.912-15.628-15.602H296.874z"/>
	</g>
	<g>
		<path fill="#58595B" d="M328.122,34.612V19.01c0.392,8.253,7.878,14.905,15.63,15.602H328.122z"/>
	</g>
	<g>
		<path fill="#231F20" d="M328.122,34.612v15.606c0.392-8.259,7.878-14.915,15.63-15.606H328.122z"/>
	</g>
	<g>
		<path fill="#231F20" d="M328.122,34.612V19.01c-0.392,8.253-7.871,14.905-15.621,15.602H328.122z"/>
	</g>
	<g>
		<path fill="#BCBEC0" d="M328.122,34.612v15.606c-0.392-8.259-7.871-14.915-15.621-15.606H328.122z"/>
	</g>
	<g>
		<path fill="#58595B" d="M328.122,65.87V50.308c0.392,8.229,7.878,14.864,15.63,15.562H328.122z"/>
	</g>
	<g>
		<path fill="#231F20" d="M328.122,65.87v15.556c0.392-8.236,7.878-14.869,15.63-15.556H328.122z"/>
	</g>
	<g>
		<path fill="#231F20" d="M328.122,65.87V50.308c-0.392,8.229-7.871,14.864-15.621,15.562H328.122z"/>
	</g>
	<g>
		<path fill="#BCBEC0" d="M328.122,65.87v15.556c-0.392-8.236-7.871-14.869-15.621-15.556H328.122z"/>
	</g>
</g>
</svg>
