<?xml version="1.0" encoding="utf-8"?>
<!-- Generator: Adobe Illustrator 16.0.0, SVG Export Plug-In . SVG Version: 6.00 Build 0)  -->
<!DOCTYPE svg PUBLIC "-//W3C//DTD SVG 1.1//EN" "http://www.w3.org/Graphics/SVG/1.1/DTD/svg11.dtd">
<svg version="1.1" id="Layer_1" xmlns="http://www.w3.org/2000/svg" xmlns:xlink="http://www.w3.org/1999/xlink" x="0px" y="0px"
	 width="69.167px" height="13.484px" viewBox="0 0 69.167 13.484" enable-background="new 0 0 69.167 13.484" xml:space="preserve">
<g>
	<path fill="#000CCC" d="M34.737,7.088c-3.161,0-5.725-2.56-5.725-5.716c0,3.157-2.561,5.716-5.722,5.716
		c3.161,0,5.722,2.557,5.722,5.711C29.013,9.645,31.577,7.088,34.737,7.088z"/>
</g>
<g>
	<path fill="#000CCC" d="M23.293,7.088c-3.162,0-5.726-2.56-5.726-5.716c0,3.157-2.562,5.716-5.722,5.716
		c3.16,0,5.722,2.557,5.722,5.711C17.567,9.645,20.131,7.088,23.293,7.088z"/>
</g>
<g>
	<path fill="#000CCC" d="M11.845,7.088c-3.16,0-5.724-2.56-5.724-5.716c0,3.157-2.563,5.716-5.722,5.716
		c3.159,0,5.722,2.557,5.722,5.711C6.121,9.645,8.685,7.088,11.845,7.088z"/>
</g>
<g>
	<path fill="#000CCC" d="M68.768,7.088c-3.161,0-5.726-2.56-5.726-5.716c0,3.157-2.561,5.716-5.721,5.716
		c3.16,0,5.721,2.557,5.721,5.711C63.042,9.645,65.606,7.088,68.768,7.088z"/>
</g>
<g>
	<path fill="#000CCC" d="M57.323,7.088c-3.164,0-5.727-2.56-5.727-5.716c0,3.157-2.562,5.716-5.723,5.716
		c3.16,0,5.723,2.557,5.723,5.711C51.597,9.645,54.159,7.088,57.323,7.088z"/>
</g>
<g>
	<path fill="#000CCC" d="M45.874,7.088c-3.16,0-5.724-2.56-5.724-5.716c0,3.157-2.562,5.716-5.723,5.716
		c3.16,0,5.723,2.557,5.723,5.711C40.15,9.645,42.714,7.088,45.874,7.088z"/>
</g>
<g>
</g>
<g>
</g>
<g>
</g>
<g>
</g>
<g>
</g>
<g>
</g>
<g>
</g>
<g>
</g>
<g>
</g>
<g>
</g>
<g>
</g>
<g>
</g>
<g>
</g>
<g>
</g>
<g>
</g>
</svg>
