<svg xmlns="http://www.w3.org/2000/svg" xmlns:xlink="http://www.w3.org/1999/xlink" version="1.1" x="0px" y="0px" width="76.667px" height="42.667px" viewBox="0 0 76.667 42.667" enable-background="new 0 0 76.667 42.667" xml:space="preserve">
<g id="bg-shape">
	<g>
		<g>
			<path fill="#E50000" d="M38.513 18.725c0.968 0.6 0.7 1.106-0.139 1.936c-2.489 3.183-10.65 12.588-14.386 16.9 c-0.83 0.969-1.245 0.969-2.351 0.275c-4.704-2.766-14.94-10.512-17.569-14.662c-0.691-1.106-0.691-1.245 0-2.491 c3.32-5.118 9.13-11.758 13.143-15.769c1.936-1.938 2.351-2.075 3.042-1.384C24.127 7.7 31.5 14.2 38.5 18.725z"/>
		</g>
	</g>
	<g>
		<g>
			<path fill="#E50000" d="M72.501 18.725c0.969 0.6 0.7 1.106-0.139 1.936c-2.488 3.183-10.65 12.588-14.386 16.9 c-0.829 0.969-1.244 0.969-2.351 0.275c-4.704-2.766-14.94-10.512-17.569-14.662c-0.691-1.106-0.691-1.245 0-2.491 c3.32-5.118 9.131-11.758 13.143-15.769c1.937-1.938 2.351-2.075 3.042-1.384C58.116 7.7 65.4 14.2 72.5 18.725z"/>
		</g>
	</g>
</g>
<g id="eye">
	<path fill-rule="evenodd" clip-rule="evenodd" fill="#FFFFFF" d="M23.495 24.598c0.957-0.66 1.568-1.537 1.773-2.666 c0.207-1.131-0.055-2.171-0.795-3.187c2.266 0.5 4.2 1.4 6 2.853C28.396 23.3 26.1 24.2 23.5 24.598z"/>
	<path fill-rule="evenodd" clip-rule="evenodd" fill="#FFFFFF" d="M19.41 24.647c-2.647-0.398-4.969-1.337-7.017-3.045 c1.737-1.457 3.683-2.365 5.904-2.85C16.866 20.9 17.4 23.3 19.4 24.647z"/>
	<path fill-rule="evenodd" clip-rule="evenodd" fill="#FFFFFF" d="M19.899 21.196c-0.333 0-0.621 0-0.909 0 c-0.079-1.05 0.728-2.104 1.792-2.321c0.076 0.3 0.2 0.6 0.2 0.878C20.351 20 20 20.5 19.9 21.196z"/>
	<path fill-rule="evenodd" clip-rule="evenodd" fill="#FFFFFF" d="M56.758 24.598c0.957-0.66 1.57-1.537 1.775-2.666 c0.205-1.131-0.055-2.171-0.795-3.187c2.266 0.5 4.2 1.4 6 2.853C61.661 23.3 59.3 24.2 56.8 24.598z"/>
	<path fill-rule="evenodd" clip-rule="evenodd" fill="#FFFFFF" d="M52.674 24.647c-2.646-0.398-4.969-1.337-7.017-3.045 c1.738-1.457 3.683-2.365 5.904-2.85C50.129 20.9 50.7 23.3 52.7 24.647z"/>
	<path fill-rule="evenodd" clip-rule="evenodd" fill="#FFFFFF" d="M53.165 21.196c-0.334 0-0.623 0-0.91 0 c-0.08-1.05 0.727-2.104 1.791-2.321c0.076 0.3 0.2 0.6 0.2 0.878C53.614 20 53.2 20.5 53.2 21.196z"/>
</g>
<g id="eyebrow">
	<path fill-rule="evenodd" clip-rule="evenodd" fill="#FFFFFF" d="M10.554 19.875c6.67-6.356 15.732-6.285 22.3 0 c-0.629-0.214-1.164-0.397-1.699-0.578c-2.061-0.698-4.131-1.35-6.283-1.731c-2.637-0.469-5.252-0.363-7.824 0.3 c-2.021 0.536-4.006 1.216-6.006 1.833C10.912 19.8 10.8 19.8 10.6 19.875z"/>
	<path fill-rule="evenodd" clip-rule="evenodd" fill="#FFFFFF" d="M43.818 19.875c6.67-6.356 15.732-6.285 22.3 0 c-0.629-0.214-1.164-0.397-1.699-0.578c-2.061-0.698-4.131-1.35-6.281-1.731c-2.639-0.469-5.254-0.363-7.826 0.3 c-2.021 0.536-4.006 1.216-6.006 1.833C44.175 19.8 44.1 19.8 43.8 19.875z"/>
</g>
</svg>
