<?xml version="1.0" encoding="utf-8"?>
<!-- Generator: Adobe Illustrator 16.0.0, SVG Export Plug-In . SVG Version: 6.00 Build 0)  -->
<!DOCTYPE svg PUBLIC "-//W3C//DTD SVG 1.1//EN" "http://www.w3.org/Graphics/SVG/1.1/DTD/svg11.dtd">
<svg version="1.1" id="Layer_1" xmlns="http://www.w3.org/2000/svg" xmlns:xlink="http://www.w3.org/1999/xlink" x="0px" y="0px"
	 width="77.991px" height="82.258px" viewBox="0 0 77.991 82.258" enable-background="new 0 0 77.991 82.258" xml:space="preserve">
<path fill="#E50000" d="M74.376,37.15C59.841,27.743,44.732,14.346,36.752,5.795c-1.426-1.423-2.28-1.14-6.27,2.852
	c-8.267,8.264-20.24,21.946-27.081,32.493c-1.424,2.566-1.424,2.852,0,5.132c5.417,8.551,26.509,24.513,36.202,30.213
	c2.281,1.427,3.133,1.427,4.842-0.567c7.698-8.84,24.516-28.219,29.645-34.777C75.803,39.431,76.371,38.291,74.376,37.15z
	 M40.161,61.742h-4v-25h4V61.742z M38.229,29.341c-1.57,0-3.02-1.208-3.02-2.959s1.449-3.02,3.02-3.02s3.02,1.268,3.02,3.02
	S39.799,29.341,38.229,29.341z"/>
</svg>
