<?xml version="1.0" encoding="utf-8"?>
<!-- Generator: Adobe Illustrator 16.0.0, SVG Export Plug-In . SVG Version: 6.00 Build 0)  -->
<!DOCTYPE svg PUBLIC "-//W3C//DTD SVG 1.1//EN" "http://www.w3.org/Graphics/SVG/1.1/DTD/svg11.dtd">
<svg version="1.1" id="Layer_1" xmlns="http://www.w3.org/2000/svg" xmlns:xlink="http://www.w3.org/1999/xlink" x="0px" y="0px"
	 width="322.098px" height="507.163px" viewBox="0 0 322.098 507.163" enable-background="new 0 0 322.098 507.163"
	 xml:space="preserve">
<g>
	<g>
		<path fill="#FF0000" d="M314.477,161.628c-2.604-3.653-20.342-22.691-29.728-28.688c-9.39-5.997-8.347-17.473-8.085-22.689
			c4.693-7.561,3.128-13.038,1.043-13.821c-2.086-0.782-2.348-2.609-2.348-2.609c-8.345-38.335-23.467-49.812-23.467-49.812
			c-5.107-16.308-26.195-27.502-73.138-35.326C131.816,0.861,83.312,24.332,53.582,57.188
			C23.857,90.05,28.547,198.012,28.547,198.012c-18.775,34.42-1.143,65.858-1.143,65.858c-21.904,32.859-7.098,59.189-7.098,59.189
			c-11.998,29.469,0.435,42.609,0.435,42.609c-19.562,26.601-5.158,44.244-5.158,44.244c-15.993,16.691-5.188,43.543-5.188,43.543
			c-16.953,32.598-2.463,46.865-2.463,46.865c-2.519,2.522-4.472,4.48-5.97,6.818c8.603,0.199,17.317-0.023,26.038-0.023
			c-1.458-3.688-2.884-7.385-0.91-11.936c1.5-3.473,6.018-14.338,11.193-26.819c6.957-14.652,18.986-39.276,28.704-55.591
			c55.812-101.188,190.896,9.39,186.728,2.609c-4.175-6.783-31.815-41.729-37.552-49.551c-5.739-7.826-3.653-30.252-3.653-30.252
			s6.52-56.854,20.865-61.024c14.342-4.175,45.375,5.996,59.717-3.132c14.342-9.125,5.48-26.34,3.391-31.553
			c-2.085-5.218,5.479-5.478,8.607-13.301c-0.259-11.998-8.344-11.213-8.344-11.213s3.91-2.348,5.736-4.956
			c1.827-2.609,2.607-5.479-1.305-11.999c-3.91-6.519,0.783-11.996,11.476-17.21C323.348,175.971,317.087,165.279,314.477,161.628z
			 M88.371,353.311c-3.594,5.033-7.396,11.513-11.259,18.871c-0.373-2.918-1.024-4.688-1.024-4.688
			c9.041-7.304,13.216-27.819,11.476-40.688c-0.699-5.18-2.09-10.774-2.09-10.774s18.099-1.799,24.284-16.967
			C109.758,299.065,111.845,320.448,88.371,353.311z"/>
		<path fill="#FF0000" d="M109.805,299.036c0.037-0.026,0.068-0.049,0.109-0.078C109.864,298.993,109.826,299.018,109.805,299.036z"
			/>
		<path fill="#FF0000" d="M113.758,296.358c-0.049,0.034-0.113,0.08-0.189,0.13C113.647,296.434,113.709,296.392,113.758,296.358
			C113.945,296.231,113.93,296.246,113.758,296.358z"/>
		<path fill="#FF0000" d="M110.931,298.268c0.069-0.045,0.14-0.092,0.208-0.137C111.068,298.179,111,298.223,110.931,298.268z"/>
		<path fill="#FF0000" d="M111.678,297.766c0.189-0.131,0.368-0.248,0.535-0.361C112.034,297.525,111.855,297.647,111.678,297.766z"
			/>
		<path fill="#FF0000" d="M113.135,296.781c0.08-0.054,0.151-0.103,0.22-0.146C113.283,296.68,113.211,296.729,113.135,296.781z"/>
	</g>
	<g>
		<path fill="#0000FF" d="M311.16,162.59c-2.592-3.625-20.195-22.528-29.518-28.483c-9.326-5.952-8.287-17.349-8.023-22.525
			c4.658-7.508,3.102-12.946,1.031-13.724c-2.071-0.774-2.334-2.588-2.334-2.588c-8.282-38.061-23.297-49.453-23.297-49.453
			c-5.062-16.189-26-27.306-72.605-35.071C129.809,2.979,81.656,26.279,52.139,58.903C22.624,91.522,27.283,198.71,27.283,198.71
			c-18.643,34.175-1.131,65.386-1.131,65.386C4.403,296.718,19.1,322.86,19.1,322.86c-11.91,29.256,0.435,42.303,0.435,42.303
			c-19.421,26.41-5.12,43.927-5.12,43.927c-15.88,16.573-5.153,43.228-5.153,43.228c-16.827,32.363-2.444,46.531-2.444,46.531
			c-3.034,3.035-5.244,5.525-6.816,8.291c9.065,0,18.113,0.023,27.336,0.023c-1.578-4.361-3.729-8.272-1.507-13.418
			c1.497-3.452,5.984-14.243,11.122-26.638c6.912-14.548,18.849-38.988,28.498-55.18c55.404-100.462,189.522,9.319,185.382,2.589
			c-4.142-6.734-31.589-41.428-37.287-49.197c-5.694-7.765-3.618-30.033-3.618-30.033s6.469-56.443,20.713-60.586
			c14.236-4.143,45.048,5.956,59.29-3.107c14.236-9.061,5.437-26.151,3.365-31.328c-2.071-5.178,5.435-5.437,8.545-13.206
			c-0.259-11.91-8.287-11.131-8.287-11.131s3.883-2.331,5.698-4.919c1.812-2.59,2.589-5.439-1.297-11.913
			c-3.879-6.471,0.775-11.909,11.392-17.087S313.75,166.213,311.16,162.59z M86.681,352.893c-3.571,4.996-7.346,11.43-11.179,18.734
			c-0.373-2.898-1.021-4.654-1.021-4.654c8.976-7.252,13.12-27.619,11.396-40.395c-0.696-5.143-2.074-10.699-2.074-10.699
			s17.967-1.783,24.109-16.842C107.912,299.038,109.979,320.27,86.681,352.893z"/>
		<path fill="#0000FF" d="M111.863,296.364C112.076,296.217,112.051,296.235,111.863,296.364L111.863,296.364z"/>
		<path fill="#0000FF" d="M108.026,298.956c0.118-0.075,0.222-0.148,0.331-0.221C108.221,298.829,108.106,298.907,108.026,298.956z"
			/>
		<path fill="#0000FF" d="M108.697,298.506c0.002-0.002,0.007-0.004,0.012-0.005C108.704,298.502,108.699,298.504,108.697,298.506z"
			/>
		<path fill="#0000FF" d="M109.875,297.706c0.066-0.041,0.138-0.092,0.203-0.135C110.01,297.618,109.941,297.665,109.875,297.706z"
			/>
	</g>
</g>
<g>
</g>
<g>
</g>
<g>
</g>
<g>
</g>
<g>
</g>
<g>
</g>
<g>
</g>
<g>
</g>
<g>
</g>
<g>
</g>
<g>
</g>
<g>
</g>
<g>
</g>
<g>
</g>
<g>
</g>
</svg>
