<?xml version="1.0" encoding="utf-8"?>
<!-- Generator: Adobe Illustrator 16.0.0, SVG Export Plug-In . SVG Version: 6.00 Build 0)  -->
<!DOCTYPE svg PUBLIC "-//W3C//DTD SVG 1.1//EN" "http://www.w3.org/Graphics/SVG/1.1/DTD/svg11.dtd">
<svg version="1.1" id="Layer_1" xmlns="http://www.w3.org/2000/svg" xmlns:xlink="http://www.w3.org/1999/xlink" x="0px" y="0px"
	 width="360px" height="499.992px" viewBox="0 0 360 499.992" enable-background="new 0 0 360 499.992" xml:space="preserve">
<g>
	<g>
		<path fill="#FF0000" d="M337.859,154.457c-2.604-3.653-20.342-22.691-29.727-28.688c-9.391-5.997-8.348-17.473-8.086-22.689
			c4.693-7.561,3.129-13.038,1.043-13.821c-2.086-0.782-2.348-2.609-2.348-2.609c-8.344-38.335-23.467-49.812-23.467-49.812
			c-5.107-16.308-26.195-27.502-73.137-35.326C155.2-6.311,106.696,17.161,76.965,50.017C47.241,82.878,51.93,190.84,51.93,190.84
			c-18.775,34.42-1.143,65.858-1.143,65.858c-21.904,32.859-7.098,59.189-7.098,59.189c-11.998,29.469,0.435,42.609,0.435,42.609
			c-19.562,26.601-5.158,44.244-5.158,44.244c-15.993,16.691-5.188,43.543-5.188,43.543c-16.953,32.598-2.463,46.865-2.463,46.865
			c-2.519,2.522-4.472,4.48-5.97,6.818c8.603,0.199,17.317-0.023,26.038-0.023c-1.458-3.688-2.884-7.385-0.91-11.936
			c1.5-3.473,6.018-14.338,11.193-26.819c6.957-14.652,18.986-39.276,28.704-55.591c55.812-101.188,190.897,9.39,186.727,2.609
			c-4.174-6.783-31.814-41.729-37.551-49.551c-5.74-7.826-3.654-30.252-3.654-30.252s6.52-56.854,20.865-61.024
			c14.342-4.175,45.375,5.996,59.717-3.132c14.342-9.125,5.48-26.34,3.391-31.553c-2.084-5.218,5.479-5.478,8.607-13.301
			c-0.258-11.998-8.344-11.213-8.344-11.213s3.91-2.348,5.736-4.956c1.828-2.609,2.607-5.479-1.305-11.999
			c-3.91-6.519,0.783-11.996,11.477-17.21C346.73,168.799,340.471,158.107,337.859,154.457z M111.754,346.14
			c-3.594,5.033-7.396,11.513-11.259,18.871c-0.373-2.918-1.024-4.688-1.024-4.688c9.041-7.304,13.216-27.819,11.476-40.688
			c-0.699-5.18-2.09-10.774-2.09-10.774s18.099-1.799,24.284-16.967C133.141,291.894,135.228,313.276,111.754,346.14z"/>
		<path fill="#FF0000" d="M133.188,291.864c0.037-0.026,0.068-0.049,0.109-0.078C133.248,291.821,133.209,291.847,133.188,291.864z"
			/>
		<path fill="#FF0000" d="M137.141,289.187c-0.049,0.034-0.113,0.08-0.189,0.13C137.031,289.263,137.092,289.221,137.141,289.187
			C137.329,289.06,137.313,289.074,137.141,289.187z"/>
		<path fill="#FF0000" d="M134.314,291.097c0.069-0.045,0.14-0.092,0.208-0.137C134.452,291.008,134.383,291.052,134.314,291.097z"
			/>
		<path fill="#FF0000" d="M135.061,290.595c0.189-0.131,0.368-0.248,0.535-0.361C135.417,290.354,135.239,290.476,135.061,290.595z"
			/>
		<path fill="#FF0000" d="M136.518,289.609c0.08-0.054,0.151-0.103,0.22-0.146C136.667,289.509,136.594,289.558,136.518,289.609z"/>
	</g>
	<g>
		<path fill="#FFFAFA" d="M334.543,155.418c-2.592-3.625-20.195-22.528-29.518-28.483c-9.326-5.952-8.287-17.349-8.023-22.525
			c4.658-7.508,3.102-12.946,1.031-13.724c-2.07-0.774-2.334-2.588-2.334-2.588c-8.281-38.061-23.297-49.453-23.297-49.453
			c-5.062-16.189-26-27.306-72.605-35.071C153.192-4.192,105.04,19.108,75.522,51.731c-29.515,32.62-24.855,139.807-24.855,139.807
			c-18.643,34.175-1.131,65.386-1.131,65.386c-21.749,32.622-7.053,58.764-7.053,58.764c-11.91,29.256,0.435,42.303,0.435,42.303
			c-19.421,26.41-5.12,43.927-5.12,43.927c-15.88,16.573-5.153,43.228-5.153,43.228c-16.827,32.363-2.444,46.531-2.444,46.531
			c-3.034,3.035-5.244,5.525-6.816,8.291c9.065,0,18.113,0.023,27.336,0.023c-1.578-4.361-3.729-8.272-1.507-13.418
			c1.497-3.452,5.984-14.243,11.122-26.638c6.912-14.548,18.849-38.988,28.498-55.18c55.404-100.462,189.523,9.319,185.382,2.589
			c-4.143-6.734-31.59-41.428-37.287-49.197c-5.695-7.765-3.619-30.033-3.619-30.033s6.469-56.443,20.713-60.586
			c14.236-4.143,45.049,5.956,59.291-3.107c14.236-9.061,5.436-26.151,3.365-31.328c-2.072-5.178,5.434-5.437,8.545-13.206
			c-0.26-11.91-8.287-11.131-8.287-11.131s3.883-2.331,5.697-4.919c1.812-2.59,2.59-5.439-1.297-11.913
			c-3.879-6.471,0.775-11.909,11.393-17.087C343.344,169.658,337.133,159.042,334.543,155.418z M110.064,345.722
			c-3.571,4.996-7.346,11.43-11.179,18.734c-0.373-2.898-1.021-4.654-1.021-4.654c8.976-7.252,13.12-27.619,11.396-40.395
			c-0.696-5.143-2.074-10.699-2.074-10.699s17.967-1.783,24.109-16.842C131.295,291.866,133.362,313.099,110.064,345.722z"/>
		<path fill="#FFFAFA" d="M135.247,289.192C135.459,289.046,135.434,289.063,135.247,289.192L135.247,289.192z"/>
		<path fill="#FFFAFA" d="M131.41,291.784c0.118-0.075,0.222-0.148,0.331-0.221C131.604,291.657,131.49,291.735,131.41,291.784z"/>
		<path fill="#FFFAFA" d="M132.081,291.335c0.002-0.002,0.007-0.004,0.012-0.005C132.087,291.331,132.083,291.333,132.081,291.335z"
			/>
		<path fill="#FFFAFA" d="M133.258,290.534c0.066-0.041,0.138-0.092,0.203-0.135C133.393,290.446,133.325,290.493,133.258,290.534z"
			/>
	</g>
</g>
<g>
</g>
<g>
</g>
<g>
</g>
<g>
</g>
<g>
</g>
<g>
</g>
<g>
</g>
<g>
</g>
<g>
</g>
<g>
</g>
<g>
</g>
<g>
</g>
<g>
</g>
<g>
</g>
<g>
</g>
</svg>
